<?xml version="1.0" encoding="UTF-8" standalone="no"?>
<svg
   xmlns:osb="http://www.openswatchbook.org/uri/2009/osb"
   xmlns:dc="http://purl.org/dc/elements/1.1/"
   xmlns:cc="http://creativecommons.org/ns#"
   xmlns:rdf="http://www.w3.org/1999/02/22-rdf-syntax-ns#"
   xmlns:svg="http://www.w3.org/2000/svg"
   xmlns="http://www.w3.org/2000/svg"
   xmlns:xlink="http://www.w3.org/1999/xlink"
   xmlns:sodipodi="http://sodipodi.sourceforge.net/DTD/sodipodi-0.dtd"
   xmlns:inkscape="http://www.inkscape.org/namespaces/inkscape"
   width="210mm"
   height="297mm"
   viewBox="0 0 210 297"
   version="1.1"
   id="svg8"
   inkscape:version="1.0.1 (3bc2e813f5, 2020-09-07)"
   sodipodi:docname="Jendela Pesawat.svg"
   inkscape:export-filename="E:\Nila\Akademik\Semester 5_113 (24 sks)\Interaksi Manusia dan Komputer (3 sks)\Jendela.png"
   inkscape:export-xdpi="147.00339"
   inkscape:export-ydpi="147.00339">
  <defs
     id="defs2">
    <rect
       x="-210.60839"
       y="353.86485"
       width="14.432554"
       height="26.192414"
       id="rect4747" />
    <linearGradient
       inkscape:collect="always"
       id="linearGradient4710">
      <stop
         style="stop-color:#80b3ff;stop-opacity:1;"
         offset="0"
         id="stop4706" />
      <stop
         style="stop-color:#80b3ff;stop-opacity:0;"
         offset="1"
         id="stop4708" />
    </linearGradient>
    <linearGradient
       inkscape:collect="always"
       id="linearGradient4456">
      <stop
         style="stop-color:#333333;stop-opacity:1;"
         offset="0"
         id="stop4452" />
      <stop
         style="stop-color:#333333;stop-opacity:0;"
         offset="1"
         id="stop4454" />
    </linearGradient>
    <linearGradient
       inkscape:collect="always"
       id="linearGradient3730">
      <stop
         style="stop-color:#333333;stop-opacity:1;"
         offset="0"
         id="stop3726" />
      <stop
         style="stop-color:#333333;stop-opacity:0;"
         offset="1"
         id="stop3728" />
    </linearGradient>
    <linearGradient
       inkscape:collect="always"
       id="linearGradient3604">
      <stop
         style="stop-color:#999999;stop-opacity:1;"
         offset="0"
         id="stop3600" />
      <stop
         style="stop-color:#999999;stop-opacity:0;"
         offset="1"
         id="stop3602" />
    </linearGradient>
    <linearGradient
       inkscape:collect="always"
       id="linearGradient3400">
      <stop
         style="stop-color:#ffffff;stop-opacity:1;"
         offset="0"
         id="stop3396" />
      <stop
         style="stop-color:#ffffff;stop-opacity:0;"
         offset="1"
         id="stop3398" />
    </linearGradient>
    <linearGradient
       inkscape:collect="always"
       id="linearGradient3376">
      <stop
         style="stop-color:#333333;stop-opacity:1;"
         offset="0"
         id="stop3372" />
      <stop
         style="stop-color:#333333;stop-opacity:0;"
         offset="1"
         id="stop3374" />
    </linearGradient>
    <linearGradient
       id="linearGradient3314"
       osb:paint="solid">
      <stop
         style="stop-color:#000000;stop-opacity:1;"
         offset="0"
         id="stop3312" />
    </linearGradient>
    <linearGradient
       id="linearGradient3306"
       osb:paint="solid">
      <stop
         style="stop-color:#000000;stop-opacity:1;"
         offset="0"
         id="stop3304" />
    </linearGradient>
    <linearGradient
       id="linearGradient3300"
       osb:paint="solid">
      <stop
         style="stop-color:#999999;stop-opacity:1;"
         offset="0"
         id="stop3298" />
    </linearGradient>
    <linearGradient
       inkscape:collect="always"
       id="linearGradient3248"
       osb:paint="gradient">
      <stop
         style="stop-color:#999999;stop-opacity:1;"
         offset="0"
         id="stop3244" />
      <stop
         style="stop-color:#999999;stop-opacity:0;"
         offset="1"
         id="stop3246" />
    </linearGradient>
    <radialGradient
       inkscape:collect="always"
       xlink:href="#linearGradient3376"
       id="radialGradient3378"
       cx="-220.36011"
       cy="139.92229"
       fx="-220.36011"
       fy="139.92229"
       r="86.55654"
       gradientTransform="matrix(1.3318365,-0.02059437,0.02832649,1.8318742,69.159986,-120.93591)"
       gradientUnits="userSpaceOnUse" />
    <radialGradient
       inkscape:collect="always"
       xlink:href="#linearGradient3400"
       id="radialGradient3490"
       gradientUnits="userSpaceOnUse"
       gradientTransform="matrix(9.5988974,0.03955087,-0.01556777,3.7782266,1898.077,-378.91178)"
       cx="-220.48233"
       cy="139.52499"
       fx="-220.48233"
       fy="139.52499"
       r="80.176323" />
    <filter
       inkscape:collect="always"
       style="color-interpolation-filters:sRGB"
       id="filter3580"
       x="-0.040509328"
       width="1.0810187"
       y="-0.025925769"
       height="1.0518515">
      <feGaussianBlur
         inkscape:collect="always"
         stdDeviation="2.7065742"
         id="feGaussianBlur3582" />
    </filter>
    <radialGradient
       inkscape:collect="always"
       xlink:href="#linearGradient3604"
       id="radialGradient3608"
       gradientUnits="userSpaceOnUse"
       gradientTransform="matrix(4.2247116,-0.09359537,0.07145673,3.2254172,703.15171,-330.64128)"
       cx="-221.13724"
       cy="139.27449"
       fx="-221.13724"
       fy="139.27449"
       r="66.800897" />
    <filter
       inkscape:collect="always"
       style="color-interpolation-filters:sRGB"
       id="filter3714"
       x="-0.046167721"
       width="1.0923354"
       y="-0.028306336"
       height="1.0566127">
      <feGaussianBlur
         inkscape:collect="always"
         stdDeviation="2.5659598"
         id="feGaussianBlur3716" />
    </filter>
    <radialGradient
       inkscape:collect="always"
       xlink:href="#linearGradient3730"
       id="radialGradient3734"
       gradientUnits="userSpaceOnUse"
       gradientTransform="matrix(1.8344439,3.3698928,-4.7179061,2.568252,840.7468,526.99671)"
       cx="-221.11484"
       cy="139.09537"
       fx="-221.11484"
       fy="139.09537"
       r="60.375341" />
    <filter
       inkscape:collect="always"
       style="color-interpolation-filters:sRGB"
       id="filter3876"
       x="-0.013708303"
       width="1.0274166"
       y="-0.0082797155"
       height="1.0165594">
      <feGaussianBlur
         inkscape:collect="always"
         stdDeviation="0.68860034"
         id="feGaussianBlur3878" />
    </filter>
    <filter
       inkscape:collect="always"
       style="color-interpolation-filters:sRGB"
       id="filter4092"
       x="-0.012091022"
       width="1.024182"
       y="-0.0072616012"
       height="1.0145232">
      <feGaussianBlur
         inkscape:collect="always"
         stdDeviation="0.58734273"
         id="feGaussianBlur4094" />
    </filter>
    <filter
       inkscape:collect="always"
       style="color-interpolation-filters:sRGB"
       id="filter4364"
       x="-0.016991465"
       width="1.0339829"
       y="-0.0097006668"
       height="1.0194013">
      <feGaussianBlur
         inkscape:collect="always"
         stdDeviation="0.7349762"
         id="feGaussianBlur4366" />
    </filter>
    <radialGradient
       inkscape:collect="always"
       xlink:href="#linearGradient4456"
       id="radialGradient4460"
       gradientUnits="userSpaceOnUse"
       gradientTransform="matrix(4.2019215,-0.06464051,0.0645876,4.1984811,697.9092,-455.97116)"
       cx="-220.75137"
       cy="138.09732"
       fx="-220.75137"
       fy="138.09732"
       r="45.45404" />
    <filter
       inkscape:collect="always"
       style="color-interpolation-filters:sRGB"
       id="filter4614"
       x="-0.016537206"
       width="1.0330744"
       y="-0.0089980684"
       height="1.0179961">
      <feGaussianBlur
         inkscape:collect="always"
         stdDeviation="0.62640234"
         id="feGaussianBlur4616" />
    </filter>
    <filter
       inkscape:collect="always"
       style="color-interpolation-filters:sRGB"
       id="filter4692"
       x="-0.013111957"
       width="1.0262239"
       y="-0.0069371988"
       height="1.0138744">
      <feGaussianBlur
         inkscape:collect="always"
         stdDeviation="0.47021107"
         id="feGaussianBlur4694" />
    </filter>
    <radialGradient
       inkscape:collect="always"
       xlink:href="#linearGradient4710"
       id="radialGradient4714"
       gradientUnits="userSpaceOnUse"
       gradientTransform="matrix(7.9245621,0.00973228,-0.00348294,2.83598,1529.068,-251.08582)"
       cx="-220.74863"
       cy="137.92863"
       fx="-220.74863"
       fy="137.92863"
       r="44.161996" />
  </defs>
  <sodipodi:namedview
     id="base"
     pagecolor="#ffffff"
     bordercolor="#666666"
     borderopacity="1.0"
     inkscape:pageopacity="0.0"
     inkscape:pageshadow="2"
     inkscape:zoom="0.49497475"
     inkscape:cx="-736.62704"
     inkscape:cy="651.22006"
     inkscape:document-units="mm"
     inkscape:current-layer="layer1"
     inkscape:document-rotation="0"
     showgrid="false"
     inkscape:window-width="1920"
     inkscape:window-height="1046"
     inkscape:window-x="-11"
     inkscape:window-y="-11"
     inkscape:window-maximized="1" />
  <metadata
     id="metadata5">
    <rdf:RDF>
      <cc:Work
         rdf:about="">
        <dc:format>image/svg+xml</dc:format>
        <dc:type
           rdf:resource="http://purl.org/dc/dcmitype/StillImage" />
        <dc:title></dc:title>
      </cc:Work>
    </rdf:RDF>
  </metadata>
  <g
     inkscape:label="Layer 1"
     inkscape:groupmode="layer"
     id="layer1">
    <circle
       id="path64"
       style="fill:#b3b3b3;stroke:#000000;stroke-width:0.264583"
       cx="-229.05357"
       cy="99.029755"
       r="0.099906191"
       inkscape:export-xdpi="147.00339"
       inkscape:export-ydpi="147.00339" />
    <path
       style="mix-blend-mode:normal;fill-opacity:1;stroke:none;stroke-width:0.265;stroke-linecap:butt;stroke-linejoin:miter;stroke-opacity:1;opacity:1;stroke-miterlimit:4;stroke-dasharray:none;fill-rule:evenodd;fill:url(#radialGradient3378)"
       d="M -306.91665,77.863095 V 194.27977 c 0.23506,88.9086 159.3386,113.41699 173.11308,0.75593 l -0.75595,-115.660701 c -8.87389,-87.4067815 -156.08979,-98.724029 -172.35713,-1.511904 z"
       id="path82"
       sodipodi:nodetypes="ccccc"
       inkscape:export-xdpi="147.00339"
       inkscape:export-ydpi="147.00339" />
    <path
       style="fill:url(#radialGradient3490);stroke:none;stroke-width:0.249383px;stroke-linecap:butt;stroke-linejoin:miter;stroke-opacity:1;fill-opacity:1;filter:url(#filter3580)"
       d="M -300.65865,80.004001 V 191.65929 c 0.21773,85.27227 147.5935,108.77825 160.35265,0.72501 l -0.70022,-110.930225 c -8.21978,-83.8318731 -144.58417,-94.68625 -159.65243,-1.450074 z"
       id="path82-8"
       sodipodi:nodetypes="ccccc"
       inkscape:export-xdpi="147.00339"
       inkscape:export-ydpi="147.00339" />
    <path
       style="fill:url(#radialGradient3608);stroke:#000000;stroke-width:0.211948px;stroke-linecap:butt;stroke-linejoin:miter;stroke-opacity:1;fill-opacity:1;filter:url(#filter3714)"
       d="m -287.83216,87.591428 v 96.952092 c 0.18112,74.04329 122.77607,94.45392 133.38981,0.62952 l -0.58247,-96.322495 C -161.86249,16.057967 -275.2976,6.6329365 -287.83216,87.591428 Z"
       id="path82-8-3"
       sodipodi:nodetypes="ccccc"
       inkscape:export-xdpi="147.00339"
       inkscape:export-ydpi="147.00339" />
    <path
       style="fill:url(#radialGradient3734);stroke:#000000;stroke-width:0.193px;stroke-linecap:butt;stroke-linejoin:miter;stroke-opacity:1;fill-opacity:1;filter:url(#filter3876)"
       d="m -281.39368,91.678379 v 88.949361 c 0.1637,67.93152 110.96495,86.65739 120.55765,0.57755 l -0.52644,-88.371725 c -6.17988,-66.784048 -108.70247,-75.431106 -120.03121,-1.155186 z"
       id="path82-8-3-9"
       sodipodi:nodetypes="ccccc"
       inkscape:export-xdpi="147.00339"
       inkscape:export-ydpi="147.00339" />
    <path
       style="fill:#999999;stroke:none;stroke-width:0.187169px;stroke-linecap:butt;stroke-linejoin:miter;stroke-opacity:1;filter:url(#filter4092)"
       d="m -279.21089,92.559438 v 86.506782 c 0.15832,66.06611 107.3077,84.27778 116.58423,0.56171 l -0.50911,-85.945031 c -5.97618,-64.950136 -105.11976,-73.359753 -116.07512,-1.123461 z"
       id="path82-2"
       sodipodi:nodetypes="ccccc"
       inkscape:export-xdpi="147.00339"
       inkscape:export-ydpi="147.00339" />
    <path
       style="fill:#cccccc;stroke:none;stroke-width:0.170941px;stroke-linecap:butt;stroke-linejoin:miter;stroke-opacity:1;filter:url(#filter4364)"
       d="m -273.18848,95.414022 v 81.033118 c 0.14095,61.88585 95.5531,78.94518 103.81347,0.52618 l -0.45333,-80.506923 c -5.32154,-60.84048 -93.60485,-68.717976 -103.36014,-1.052375 z"
       id="path82-8-7"
       sodipodi:nodetypes="ccccc"
       inkscape:export-xdpi="147.00339"
       inkscape:export-ydpi="147.00339" />
    <path
       style="fill:url(#radialGradient4460);stroke:none;stroke-width:0.153334px;stroke-linecap:butt;stroke-linejoin:miter;stroke-opacity:1;fill-opacity:1;filter:url(#filter4614)"
       d="m -266.20542,98.406888 v 74.455192 c 0.12347,56.86219 83.6746,72.53673 90.90808,0.48345 l -0.39698,-73.971704 c -4.66,-55.901692 -81.9685,-63.139735 -90.5111,-0.966938 z"
       id="path82-2-4"
       sodipodi:nodetypes="ccccc"
       inkscape:export-xdpi="147.00339"
       inkscape:export-ydpi="147.00339" />
    <path
       style="fill:url(#radialGradient4714);stroke:none;stroke-width:0.147216px;stroke-linecap:butt;stroke-linejoin:miter;stroke-opacity:1;fill-opacity:1;filter:url(#filter4692)"
       d="m -263.78212,99.283881 v 72.493599 c 0.1169,55.3641 79.2187,70.62567 86.06698,0.47073 l -0.37583,-72.02286 c -4.41185,-54.428893 -77.60349,-61.476242 -85.69115,-0.941469 z"
       id="path82-2-4-9"
       sodipodi:nodetypes="ccccc"
       inkscape:export-xdpi="147.00339"
       inkscape:export-ydpi="147.00339" />
    <text
       xml:space="preserve"
       style="font-style:normal;font-weight:normal;font-size:10.5833px;line-height:1.25;font-family:sans-serif;fill:#000000;fill-opacity:1;stroke:none;stroke-width:0.264583"
       x="-351.72668"
       y="334.08691"
       id="text4718"><tspan
         sodipodi:role="line"
         id="tspan4716"
         x="-351.72668"
         y="334.08691"
         style="stroke-width:0.264583"></tspan></text>
    <text
       xml:space="preserve"
       style="font-style:normal;font-weight:normal;font-size:16.9333px;line-height:1.25;font-family:sans-serif;fill:#000000;fill-opacity:1;stroke:none;stroke-width:0.264583"
       x="-311.63629"
       y="327.13788"
       id="text4743"
       inkscape:export-xdpi="147.00339"
       inkscape:export-ydpi="147.00339"><tspan
         sodipodi:role="line"
         id="tspan4741"
         x="-311.63629"
         y="327.13788"
         style="font-size:16.9333px;stroke-width:0.264583">Jendela Pesawat Oval</tspan></text>
    <text
       xml:space="preserve"
       id="text4745"
       style="fill:black;fill-opacity:1;line-height:1.25;stroke:none;font-family:sans-serif;font-style:normal;font-weight:normal;font-size:10.58333333px;white-space:pre;shape-inside:url(#rect4747);" />
    <text
       xml:space="preserve"
       style="font-style:normal;font-weight:normal;font-size:10.5833px;line-height:1.25;font-family:sans-serif;fill:#000000;fill-opacity:1;stroke:none;stroke-width:0.264583"
       x="-219.94829"
       y="349.05402"
       id="text4753"
       inkscape:export-xdpi="147.00339"
       inkscape:export-ydpi="147.00339"><tspan
         sodipodi:role="line"
         id="tspan4751"
         x="-219.94829"
         y="349.05402"
         style="text-align:center;text-anchor:middle;stroke-width:0.264583">Mampu Mengalirkan Tekanan Udara Dengan</tspan><tspan
         sodipodi:role="line"
         x="-219.94829"
         y="362.28314"
         style="text-align:center;text-anchor:middle;stroke-width:0.264583"
         id="tspan4755">Lancar ke Sekitar Badan Pesawat</tspan></text>
    <path
       style="opacity:1;fill:#aaccff;fill-opacity:1;fill-rule:evenodd;stroke:none;stroke-width:0.264999;stroke-miterlimit:4;stroke-dasharray:none;stroke-opacity:1"
       id="path4785"
       d="m -111.39118,75.33887 c -3.73174,-5.471596 -7.28531,-11.057419 -10.65583,-16.758253 -2.33269,-4.073065 -4.54086,-8.240622 -6.23319,-12.626692 -1.00627,-2.607969 -1.07861,-3.066645 -1.84253,-5.707369 -1.06675,-4.703064 -1.64272,-9.554911 -1.55539,-14.383964 0.0188,-1.040278 0.10372,-2.078309 0.15558,-3.117464 0.28442,-3.30315 0.86655,-6.592585 1.85998,-9.760556 1.04807,-3.3421834 2.53265,-6.5531414 3.90516,-9.7690044 2.09593,-4.761767 4.63239,-9.3191091 7.56752,-13.6117186 2.10547,-3.238357 4.71885,-6.062525 7.44669,-8.775053 1.69644,-1.886135 3.65036,-3.503122 5.48311,-5.247673 0.21515,-0.209788 0.4303,-0.419577 0.64545,-0.629362 0,0 -7.1494,3.519186 -7.1494,3.519186 v 0 c -0.21479,0.207745 -0.42959,0.415488 -0.64438,0.623232 -1.83281,1.726305 -3.74415,3.370791 -5.44015,5.238581 -2.71399,2.728892 -5.29377,5.584702 -7.38884,8.8300765 -2.89753,4.3135881 -5.41841,8.8740791 -7.47518,13.6500011 -1.36897,3.2321984 -2.84366,6.4589944 -3.87911,9.8196704 -0.98473,3.196077 -1.55536,6.511454 -1.83479,9.839239 -0.0507,1.048341 -0.13513,2.095594 -0.15214,3.145022 -0.0788,4.862272 0.5134,9.745221 1.60496,14.476506 0.76856,2.609215 0.87317,3.163795 1.87664,5.738749 1.71365,4.397322 3.96052,8.561289 6.2989,12.651237 3.3773,5.699043 6.93314,11.282264 10.51143,16.856588 0,0 6.89551,-4.000979 6.89551,-4.000979 z"
       inkscape:export-xdpi="147.00339"
       inkscape:export-ydpi="147.00339" />
    <path
       style="opacity:1;fill:#aaccff;fill-opacity:1;fill-rule:evenodd;stroke:none;stroke-width:0.264999;stroke-miterlimit:4;stroke-dasharray:none;stroke-opacity:1"
       id="path4813"
       d="m -131.67622,-27.715366 c 3.87594,0.657701 7.80195,0.683257 11.72068,0.682294 2.72837,-0.04624 5.45886,-0.02656 8.18687,-0.09628 1.85119,-0.04731 3.66505,-0.214609 5.51495,-0.127855 0.34112,0.218385 0.75707,0.349957 1.02336,0.655151 1.60023,1.834007 1.729,6.557301 1.84271,8.868931 0.25006,4.459817 0.37662,8.9247675 0.44062,13.3907076 0.005,1.375523 0.004,2.745837 0.0935,4.11828299 0,0 6.981642,-3.82133199 6.981642,-3.82133199 v 0 c -0.09555,-1.3584211 -0.108124,-2.7161301 -0.126079,-4.0779241 -0.09326,-4.4675605 -0.220782,-8.9339545 -0.456184,-13.3966595 -0.128434,-2.557259 -0.269954,-7.13744 -1.985242,-9.207035 -0.30148,-0.363754 -0.76361,-0.55653 -1.14542,-0.834797 -0.494177,-0.03144 -0.987377,-0.09873 -1.482537,-0.09434 -1.36787,0.01215 -2.73001,0.188318 -4.09727,0.231111 -2.73093,0.08548 -5.46528,0.05699 -8.19678,0.109527 -3.87274,0.0024 -7.76452,0.0031 -11.58719,-0.709549 0,0 -6.72766,4.309761 -6.72766,4.309761 z"
       inkscape:export-xdpi="147.00339"
       inkscape:export-ydpi="147.00339" />
    <path
       style="opacity:1;fill:#aaccff;fill-opacity:1;fill-rule:evenodd;stroke:none;stroke-width:0.264999;stroke-miterlimit:4;stroke-dasharray:none;stroke-opacity:1"
       id="path4785-8"
       d="m -108.01927,197.41369 c -3.73174,5.47159 -7.28531,11.05741 -10.65583,16.75825 -2.33269,4.07306 -4.54086,8.24062 -6.23319,12.62669 -1.00627,2.60797 -1.07861,3.06665 -1.84253,5.70737 -1.06675,4.70306 -1.64272,9.55491 -1.55539,14.38396 0.0188,1.04028 0.10372,2.07831 0.15558,3.11747 0.28442,3.30315 0.86655,6.59258 1.85998,9.76055 1.04807,3.34219 2.53265,6.55315 3.90516,9.76901 2.09593,4.76176 4.63239,9.31911 7.56752,13.61172 2.10547,3.23835 4.71885,6.06252 7.44669,8.77505 1.69644,1.88613 3.65036,3.50312 5.48311,5.24767 0.21515,0.20979 0.4303,0.41958 0.64545,0.62936 0,0 -7.1494,-3.51918 -7.1494,-3.51918 v 0 c -0.21479,-0.20775 -0.42959,-0.41549 -0.64438,-0.62323 -1.83281,-1.72631 -3.74415,-3.37079 -5.44015,-5.23858 -2.71399,-2.7289 -5.29377,-5.58471 -7.38884,-8.83008 -2.89753,-4.31359 -5.41841,-8.87408 -7.47518,-13.65 -1.36897,-3.2322 -2.84366,-6.459 -3.87911,-9.81967 -0.98473,-3.19608 -1.55536,-6.51146 -1.83479,-9.83924 -0.0507,-1.04834 -0.13513,-2.0956 -0.15214,-3.14502 -0.0788,-4.86228 0.5134,-9.74522 1.60496,-14.47651 0.76856,-2.60921 0.87317,-3.16379 1.87664,-5.73875 1.71365,-4.39732 3.96052,-8.56129 6.2989,-12.65124 3.3773,-5.69904 6.93314,-11.28226 10.51143,-16.85658 0,0 6.89551,4.00098 6.89551,4.00098 z"
       inkscape:export-xdpi="147.00339"
       inkscape:export-ydpi="147.00339" />
    <path
       style="opacity:1;fill:#aaccff;fill-opacity:1;fill-rule:evenodd;stroke:none;stroke-width:0.264999;stroke-miterlimit:4;stroke-dasharray:none;stroke-opacity:1"
       id="path4813-2"
       d="m -128.30431,300.46792 c 3.87594,-0.6577 7.80195,-0.68326 11.72068,-0.68229 2.72837,0.0462 5.45886,0.0266 8.18687,0.0963 1.85119,0.0473 3.66505,0.21461 5.51495,0.12785 0.34112,-0.21838 0.75707,-0.34996 1.02336,-0.65515 1.60023,-1.83401 1.729,-6.5573 1.84271,-8.86893 0.250057,-4.45982 0.376617,-8.92477 0.440617,-13.39071 0.005,-1.37552 0.004,-2.74583 0.0935,-4.11828 0,0 6.98164,3.82133 6.98164,3.82133 v 0 c -0.0956,1.35842 -0.10812,2.71613 -0.12607,4.07793 -0.0933,4.46756 -0.22079,8.93395 -0.45619,13.39666 -0.12843,2.55725 -0.26995,7.13743 -1.98524,9.20703 -0.30148,0.36375 -0.76361,0.55653 -1.14542,0.8348 -0.49418,0.0314 -0.98738,0.0987 -1.48254,0.0943 -1.36787,-0.0121 -2.730007,-0.18832 -4.097267,-0.23111 -2.73093,-0.0855 -5.46528,-0.057 -8.19678,-0.10953 -3.87274,-0.002 -7.76452,-0.003 -11.58719,0.70955 0,0 -6.72766,-4.30976 -6.72766,-4.30976 z"
       inkscape:export-xdpi="147.00339"
       inkscape:export-ydpi="147.00339" />
    <path
       style="opacity:1;fill:#aaccff;fill-opacity:1;fill-rule:evenodd;stroke:none;stroke-width:0.264999;stroke-miterlimit:4;stroke-dasharray:none;stroke-opacity:1"
       id="path4785-8-9"
       d="m -336.1827,195.27554 c 3.73174,5.47159 7.28531,11.05741 10.65583,16.75825 2.33269,4.07306 4.54086,8.24062 6.23319,12.62669 1.00627,2.60797 1.07861,3.06665 1.84253,5.70737 1.06675,4.70306 1.64272,9.55491 1.55539,14.38396 -0.0188,1.04028 -0.10372,2.07831 -0.15558,3.11747 -0.28442,3.30315 -0.86655,6.59258 -1.85998,9.76055 -1.04807,3.34219 -2.53265,6.55315 -3.90516,9.76901 -2.09593,4.76176 -4.63239,9.31911 -7.56752,13.61172 -2.10547,3.23835 -4.71885,6.06252 -7.44669,8.77505 -1.69644,1.88613 -3.65036,3.50312 -5.48311,5.24767 -0.21515,0.20979 -0.4303,0.41958 -0.64545,0.62936 0,0 7.1494,-3.51918 7.1494,-3.51918 v 0 c 0.21479,-0.20775 0.42959,-0.41549 0.64438,-0.62323 1.83281,-1.72631 3.74415,-3.37079 5.44015,-5.23858 2.71399,-2.7289 5.29377,-5.58471 7.38884,-8.83008 2.89753,-4.31359 5.41841,-8.87408 7.47518,-13.65 1.36897,-3.2322 2.84366,-6.459 3.87911,-9.81967 0.98473,-3.19608 1.55536,-6.51146 1.83479,-9.83924 0.0507,-1.04834 0.13513,-2.0956 0.15214,-3.14502 0.0788,-4.86228 -0.5134,-9.74522 -1.60496,-14.47651 -0.76856,-2.60921 -0.87317,-3.16379 -1.87664,-5.73875 -1.71365,-4.39732 -3.96052,-8.56129 -6.2989,-12.65124 -3.3773,-5.69904 -6.93314,-11.28226 -10.51143,-16.85658 0,0 -6.89551,4.00098 -6.89551,4.00098 z"
       inkscape:export-xdpi="147.00339"
       inkscape:export-ydpi="147.00339" />
    <path
       style="opacity:1;fill:#aaccff;fill-opacity:1;fill-rule:evenodd;stroke:none;stroke-width:0.264999;stroke-miterlimit:4;stroke-dasharray:none;stroke-opacity:1"
       id="path4813-2-1"
       d="m -315.89766,298.32977 c -3.87594,-0.6577 -7.80195,-0.68326 -11.72068,-0.68229 -2.72837,0.0462 -5.45886,0.0266 -8.18687,0.0963 -1.85119,0.0473 -3.66505,0.21461 -5.51495,0.12785 -0.34112,-0.21838 -0.75707,-0.34996 -1.02336,-0.65515 -1.60023,-1.83401 -1.729,-6.5573 -1.84271,-8.86893 -0.25006,-4.45982 -0.37662,-8.92477 -0.44062,-13.39071 -0.005,-1.37552 -0.004,-2.74583 -0.0935,-4.11828 0,0 -6.98164,3.82133 -6.98164,3.82133 v 0 c 0.0956,1.35842 0.10812,2.71613 0.12607,4.07793 0.0933,4.46756 0.22079,8.93395 0.45619,13.39666 0.12843,2.55725 0.26995,7.13743 1.98524,9.20703 0.30148,0.36375 0.76361,0.55653 1.14542,0.8348 0.49418,0.0314 0.98738,0.0987 1.48254,0.0943 1.36787,-0.0121 2.73001,-0.18832 4.09727,-0.23111 2.73093,-0.0855 5.46528,-0.057 8.19678,-0.10953 3.87274,-0.002 7.76452,-0.003 11.58719,0.70955 0,0 6.72766,-4.30976 6.72766,-4.30976 z"
       inkscape:export-xdpi="147.00339"
       inkscape:export-ydpi="147.00339" />
    <path
       style="opacity:1;fill:#aaccff;fill-opacity:1;fill-rule:evenodd;stroke:none;stroke-width:0.264999;stroke-miterlimit:4;stroke-dasharray:none;stroke-opacity:1"
       id="path4785-8-9-9"
       d="m -332.97547,76.270297 c 3.73174,-5.47159 7.28531,-11.05741 10.65583,-16.75825 2.33269,-4.07306 4.54086,-8.240619 6.23319,-12.626691 1.00627,-2.607969 1.07861,-3.066648 1.84253,-5.70737 1.06675,-4.703059 1.64272,-9.554908 1.55539,-14.383959 -0.0188,-1.040281 -0.10372,-2.07831 -0.15558,-3.117472 -0.28442,-3.303148 -0.86655,-6.592578 -1.85998,-9.760548 -1.04807,-3.34219 -2.53265,-6.5531522 -3.90516,-9.7690122 -2.09593,-4.76175898 -4.63239,-9.319109 -7.56752,-13.611719 -2.10547,-3.2383488 -4.71885,-6.0625198 -7.44669,-8.7750488 -1.69644,-1.88613 -3.65036,-3.50312 -5.48311,-5.24767 -0.21515,-0.20979 -0.4303,-0.41958 -0.64545,-0.62936 0,0 7.1494,3.51918 7.1494,3.51918 v 0 c 0.21479,0.20775 0.42959,0.41549 0.64438,0.62323 1.83281,1.726309 3.74415,3.37079 5.44015,5.238579 2.71399,2.728899 5.29377,5.5847108 7.38884,8.8300788 2.89753,4.31359 5.41841,8.874081 7.47518,13.65 1.36897,3.2322002 2.84366,6.4590012 3.87911,9.8196722 0.98473,3.196079 1.55536,6.511459 1.83479,9.83924 0.0507,1.04834 0.13513,2.095598 0.15214,3.14502 0.0788,4.86228 -0.5134,9.745218 -1.60496,14.476511 -0.76856,2.609209 -0.87317,3.163789 -1.87664,5.738749 -1.71365,4.39732 -3.96052,8.56129 -6.2989,12.65124 -3.3773,5.69904 -6.93314,11.28226 -10.51143,16.85658 0,0 -6.89551,-4.00098 -6.89551,-4.00098 z"
       inkscape:export-xdpi="147.00339"
       inkscape:export-ydpi="147.00339" />
    <path
       style="opacity:1;fill:#aaccff;fill-opacity:1;fill-rule:evenodd;stroke:none;stroke-width:0.264999;stroke-miterlimit:4;stroke-dasharray:none;stroke-opacity:1"
       id="path4813-2-1-0"
       d="m -312.69043,-26.783933 c -3.87594,0.6577 -7.80195,0.68326 -11.72068,0.68229 -2.72837,-0.0462 -5.45886,-0.0266 -8.18687,-0.0963 -1.85119,-0.0473 -3.66505,-0.21461 -5.51495,-0.12785 -0.34112,0.21838 -0.75707,0.34996 -1.02336,0.65515 -1.60023,1.83401 -1.729,6.5573 -1.84271,8.86893 -0.25006,4.45982 -0.37662,8.9247688 -0.44062,13.3907078 -0.005,1.375521 -0.004,2.74583002 -0.0935,4.11828202 0,0 -6.98164,-3.82133202 -6.98164,-3.82133202 v 0 c 0.0956,-1.358418 0.10812,-2.716128 0.12607,-4.07793 0.0933,-4.4675588 0.22079,-8.9339498 0.45619,-13.3966578 0.12843,-2.55725 0.26995,-7.13743 1.98524,-9.20703 0.30148,-0.36375 0.76361,-0.55653 1.14542,-0.8348 0.49418,-0.0314 0.98738,-0.0987 1.48254,-0.0943 1.36787,0.0121 2.73001,0.18832 4.09727,0.23111 2.73093,0.0855 5.46528,0.057 8.19678,0.10953 3.87274,0.002 7.76452,0.003 11.58719,-0.70955 0,0 6.72766,4.30976 6.72766,4.30976 z"
       inkscape:export-xdpi="147.00339"
       inkscape:export-ydpi="147.00339" />
  </g>
</svg>
